<svg xmlns="http://www.w3.org/2000/svg" version="1.1" xmlns:xlink="http://www.w3.org/1999/xlink" xmlns:svgjs="http://svgjs.dev/svgjs" width="100%" height="100%" viewBox="0 0 1000 600"><rect width="1000" height="600" x="0" y="0" fill="#1e2124"/><g><rect width="333.3333333333333" height="333.3333333333333" y="319.8467287199559" fill="#949ea8" transform="matrix(0.41999231791395064,0,0,0.41999231791395064,0,95.66811778396021)" x="297.6245727539062"/><path d="M444.4679976725145 561.5133892518165L367.82658549988 561.5133892518165L367.82658549988 411.5133931050461L381.66496898278075 411.5133931050461L381.66496898278075 549.3416723927689L444.4679976725145 549.3416723927689L444.4679976725145 561.5133892518165ZM514.8467837433982 561.5133892518165L501.0084002604975 561.5133892518165L501.0084002604975 424.06389783315126L455.30133072755905 424.06389783315126L455.30133072755905 411.5133931050461L560.7558734731674 411.5133931050461L560.7558734731674 424.06389783315126L514.8467837433982 424.06389783315126L514.8467837433982 561.5133892518165Z " fill="#d6586b" transform="matrix(0.41999231791395064,0,0,0.41999231791395064,0,95.66811778396021)"/><path d="M785.2577140559152 558.8243794300568L714.2912309426847 558.8243794300568L714.2912309426847 419.93116371585916L727.1049484866882 419.93116371585916L727.1049484866882 547.5539198384333L785.2577140559152 547.5539198384333L785.2577140559152 558.8243794300568ZM824.9147668928308 558.8243794300568L812.6154686662876 558.8243794300568L812.6154686662876 472.63576105926006L824.9147668928308 472.63576105926006L824.9147668928308 558.8243794300568ZM818.8586485645519 455.37933122810216L818.8586485645519 455.37933122810216Q816.5671443322301 455.37933122810216 814.7666767211201 454.28034450443766Q812.9662091100101 453.1813577807731 811.8672223863457 451.3341247771668Q810.7682356626813 449.48689177356044 810.7682356626813 447.2889183262314L810.7682356626813 447.2889183262314Q810.7682356626813 445.09094487890235 811.8672223863457 443.29047726779237Q812.9662091100101 441.4900096566824 814.7666767211201 440.3910229330179Q816.5671443322301 439.2920362093534 818.8586485645519 439.2920362093534L818.8586485645519 439.2920362093534Q821.0332393156327 439.2920362093534 822.8103242304946 440.3910229330179Q824.5640264491083 441.4900096566824 825.7097785652691 443.243711875296Q826.8555306814301 445.0207967901578 826.8555306814301 447.2889183262314L826.8555306814301 447.2889183262314Q826.8555306814301 449.48689177356044 825.7097785652691 451.3341247771668Q824.5640264491083 453.1813577807731 822.8103242304946 454.28034450443766Q821.0332393156327 455.37933122810216 818.8586485645519 455.37933122810216ZM883.6754825645107 561.5133894985975L883.6754825645107 561.5133894985975Q872.9662076828438 561.5133894985975 864.8056466922285 556.3458136277495Q856.6450857016132 551.1548550606533 852.1088426294659 541.6614803838916L852.1088426294659 541.6614803838916L858.6559975789567 534.5765234206926Q862.7012040298921 542.8306151963006 869.1782108906384 547.4136236609443Q875.6786004476328 551.9966321255877 883.581951779518 551.9966321255877L883.581951779518 551.9966321255877Q888.8898238278553 551.9966321255877 893.3091534187615 549.8220413745069Q897.7284830096678 547.6240679271777 900.3707276857124 543.5554787799942Q903.036355058005 539.4635069365625 903.036355058005 533.8282771407507L903.036355058005 533.8282771407507Q903.036355058005 528.6840839661509 900.5344065594495 525.7378642388801Q898.0558407571423 522.7916445116091 893.3091534187615 520.6404364567765Q888.5390833841325 518.5126110981919 881.4775091171819 515.8002183334029L881.4775091171819 515.8002183334029Q876.0059581951073 513.6256275823221 870.8617650205074 510.8430867287885Q865.7409545421556 508.0605458752549 862.420611674914 503.80489515808586Q859.0768861114238 499.572627137165 859.0768861114238 493.00208949142603L859.0768861114238 493.00208949142603Q859.0768861114238 486.33802106069436 862.6310559411475 481.17044518984625Q866.161843074623 476.0028693189982 872.3816402766392 473.00988419923095Q878.6248201749036 470.0168990794637 886.528171506789 470.0168990794637L886.528171506789 470.0168990794637Q893.7768073437251 470.0168990794637 900.1135180269823 473.12679768047184Q906.4736114064876 476.23669628147996 911.5242737960948 481.96545686228444L911.5242737960948 481.96545686228444L905.8890440002831 489.12056191422795Q898.149371542135 478.949089046269 886.6217022917817 478.949089046269L886.6217022917817 478.949089046269Q879.5367453285826 478.949089046269 875.1174157376763 482.6435550534817Q870.69808614677 486.33802106069436 870.69808614677 492.3239913002288L870.69808614677 492.3239913002288Q870.69808614677 496.62640740989417 873.4806270003037 499.4790963521723Q876.2631678538373 502.3317852944504 880.752645533488 504.3660798680422Q885.2655059093872 506.3769917453858 890.4798471727315 508.4112863189776L890.4798471727315 508.4112863189776Q898.0558407571423 511.2639752612557 903.6676878567059 514.1166642035339Q909.2561522600213 516.9927358420603 912.3660508610294 521.4120654329665Q915.4759494620375 525.8313950238728 915.4759494620375 533.4073886082836L915.4759494620375 533.4073886082836Q915.4759494620375 542.0823689163587 911.4541257073504 548.3956969033677Q907.408919256415 554.7090248903768 900.207048811975 558.0995158463631Q893.0051783675351 561.5133894985975 883.6754825645107 561.5133894985975ZM964.649759671963 561.5133894985975L964.649759671963 561.5133894985975Q954.9693234252159 561.5133894985975 949.6146859843823 554.989617245355Q944.283431239797 548.4658449921124 944.283431239797 536.6108179942844L944.283431239797 536.6108179942844L944.283431239797 481.89530877353985L935.5149201467291 481.89530877353985L935.5149201467291 472.63576105926006L944.283431239797 472.63576105926006L944.283431239797 440.3910229330179L956.5593467700924 440.3910229330179L956.5593467700924 472.63576105926006L978.0246619259228 472.63576105926006L978.0246619259228 481.89530877353985L956.5593467700924 481.89530877353985L956.5593467700924 535.9327198030871Q956.5593467700924 543.0878248550307 959.3418876236258 546.8758216472361Q962.1244284771594 550.6638184394415 967.2452389555112 550.6638184394415L967.2452389555112 550.6638184394415Q972.2257532563738 550.6638184394415 976.0137500485791 547.8812775859078L976.0137500485791 547.8812775859078L979.1236486495873 557.6552446176477Q976.2709597073092 559.4089468362613 972.3894321301111 560.4611681674294Q968.507904552913 561.5133894985975 964.649759671963 561.5133894985975ZM1042.4206073934142 561.5133894985975L1042.4206073934142 561.5133894985975Q1030.3083707368564 561.5133894985975 1020.5811690976129 555.5741846515596Q1010.8539674583694 549.6583625007695 1005.1719722700614 539.2998280628252Q999.4899770817533 528.9412936248809 999.4899770817533 515.6365394596656L999.4899770817533 515.6365394596656Q999.4899770817533 502.5188468644359 1005.1018241813169 492.2070778189879Q1010.6902885846323 481.89530877353985 1020.4174902238756 475.9093385340054Q1030.144691863119 469.923368294471 1042.4206073934142 469.923368294471L1042.4206073934142 469.923368294471Q1054.1353382137536 469.923368294471 1063.628712890515 475.3949192165455Q1073.1454702635247 480.8664701386199 1078.1259845643876 490.546906385367L1078.1259845643876 490.546906385367L1078.1259845643876 472.63576105926006L1090.4019000946828 472.63576105926006L1090.4019000946828 558.8243794300568L1078.1259845643876 558.8243794300568L1078.1259845643876 540.6326417489715Q1072.5609028573203 550.4066087807114 1063.2078243580477 555.9716904877786Q1053.8781285550235 561.5133894985975 1042.4206073934142 561.5133894985975ZM1045.460357905678 550.8274973131786L1045.460357905678 550.8274973131786Q1055.1407941524253 550.8274973131786 1062.5764915593468 546.3146369372796Q1070.0355716625168 541.8251592576289 1074.3379877721823 533.8750425332471Q1078.6170211855992 525.9015431126172 1078.6170211855992 515.7300702446584L1078.6170211855992 515.7300702446584Q1078.6170211855992 505.4650665917067 1074.3613704684303 497.53833256357325Q1070.1291024475095 489.6349812316879 1062.6232569518434 485.1221208557889Q1055.1407941524253 480.63264317613806 1045.460357905678 480.63264317613806L1045.460357905678 480.63264317613806Q1035.779921658931 480.63264317613806 1028.274076163265 485.1221208557889Q1020.7916133638466 489.6349812316879 1016.4891972541811 497.53833256357325Q1012.2101638407639 505.4650665917067 1012.2101638407639 515.7300702446584L1012.2101638407639 515.7300702446584Q1012.2101638407639 525.9015431126172 1016.4891972541811 533.8750425332471Q1020.7916133638466 541.8251592576289 1028.274076163265 546.3146369372796Q1035.779921658931 550.8274973131786 1045.460357905678 550.8274973131786ZM1206.6606658406408 561.5133894985975L1206.6606658406408 561.5133894985975Q1194.5250464878345 561.5133894985975 1184.821227544839 555.6209500440559Q1175.0940259055956 549.7285105895141 1169.4120307172875 539.3699761515697Q1163.7300355289794 529.0348244098736 1163.7300355289794 515.7300702446584L1163.7300355289794 515.7300702446584Q1163.7300355289794 502.5188468644359 1169.3652653247914 492.2070778189879Q1175.0004951206033 481.89530877353985 1184.7276967598464 475.9093385340054Q1194.4548983990899 469.923368294471 1206.8243447143777 469.923368294471L1206.8243447143777 469.923368294471Q1218.3520139647312 469.923368294471 1227.7050924640039 475.3949192165455Q1237.0347882670285 480.8664701386199 1242.3426603153653 490.546906385367L1242.3426603153653 490.546906385367L1242.3426603153653 413.94519347632473L1254.641958541909 413.94519347632473L1254.641958541909 558.8243794300568L1242.3426603153653 558.8243794300568L1242.3426603153653 540.6326417489715Q1236.8711093932911 550.4066087807114 1227.4946481977704 555.9716904877786Q1218.0948043060012 561.5133894985975 1206.6606658406408 561.5133894985975ZM1209.6068855679114 550.8274973131786L1209.6068855679114 550.8274973131786Q1219.2873218146588 550.8274973131786 1226.7697846140768 546.3146369372796Q1234.275630109743 541.8251592576289 1238.55466352316 533.8750425332471Q1242.8570796328254 525.9015431126172 1242.8570796328254 515.8002183334029L1242.8570796328254 515.8002183334029Q1242.8570796328254 505.53521468045125 1238.6014289156565 497.5850979560696Q1234.3457781984876 489.6349812316879 1226.816550006573 485.1221208557889Q1219.2873218146588 480.63264317613806 1209.6068855679114 480.63264317613806L1209.6068855679114 480.63264317613806Q1199.996597409909 480.63264317613806 1192.514134610491 485.1221208557889Q1185.031671811073 489.6349812316879 1180.7292557014075 497.5850979560696Q1176.426839591742 505.53521468045125 1176.426839591742 515.8002183334029L1176.426839591742 515.8002183334029Q1176.426839591742 525.9950738976099 1180.682490308911 533.8984252294954Q1184.9381410260803 541.8251592576289 1192.4673692179945 546.3146369372796Q1199.996597409909 550.8274973131786 1209.6068855679114 550.8274973131786ZM1331.2436714509513 561.5133894985975L1331.2436714509513 561.5133894985975Q1317.6817076270058 561.5133894985975 1307.0425808340833 555.5508019553113Q1296.3800713449127 549.5648317157768 1290.3239530166338 539.2530626703289Q1284.267834688355 528.9412936248809 1284.267834688355 516.057427992133L1284.267834688355 516.057427992133Q1284.267834688355 506.3769917453858 1287.7518564293337 498.00598648853685Q1291.259260866561 489.6349812316879 1297.4790580685772 483.32165324467894Q1303.7222379668415 477.00832525767 1311.9529470462012 473.47753812419455Q1320.2070388218094 469.923368294471 1329.560117321082 469.923368294471L1329.560117321082 469.923368294471Q1342.3504521688374 469.923368294471 1352.334863466811 475.53521539403454Q1362.295892068536 481.1236797973499 1368.1415661305814 490.9677949178343Q1374.0106228888749 500.83529273456685 1374.3379806363496 513.6957756710666L1374.3379806363496 513.6957756710666Q1374.3379806363496 514.7246143059865 1374.291215243853 515.3559471046874Q1374.2444498513569 515.9872799033883 1374.0807709776195 516.8992050570674L1374.0807709776195 516.8992050570674L1296.4736021299054 516.8992050570674Q1296.4736021299054 527.0005298362819 1301.0098452020525 534.7402022944298Q1305.569470970448 542.5032574488262 1313.5195876948296 546.9225870397324Q1321.4697044192112 551.3419166306387 1331.734708072163 551.3419166306387L1331.734708072163 551.3419166306387Q1341.508675103903 551.3419166306387 1349.2951129545472 547.2499447872069Q1357.0815508051915 543.1579729437751 1362.295892068536 535.5118312706198L1362.295892068536 535.5118312706198L1371.3917609090786 540.3988147864898Q1365.242111795807 550.4066087807114 1354.673133091629 555.9716904877786Q1344.1275370836993 561.5133894985975 1331.2436714509513 561.5133894985975ZM1297.1517003211025 507.6396573427876L1297.1517003211025 507.6396573427876L1362.038682409806 507.6396573427876Q1360.96307838239 499.572627137165 1356.4034526139944 493.376212631397Q1351.8672095418474 487.1797981256289 1344.9225487561375 483.6490109921535Q1337.9778879704277 480.1182238586781 1329.7237961948194 480.1182238586781L1329.7237961948194 480.1182238586781Q1321.2124947604811 480.1182238586781 1314.2444512785232 483.6022455996571Q1307.2530251003168 487.1096500368843 1302.7401647244178 493.2826818464042Q1298.2506870447673 499.4790963521723 1297.1517003211025 507.6396573427876ZM1484.867985801503 558.8243794300568L1472.0776509537477 558.8243794300568L1472.0776509537477 431.5523637512053L1429.731588048291 431.5523637512053L1429.731588048291 419.93116371585916L1527.377727580697 419.93116371585916L1527.377727580697 431.5523637512053L1484.867985801503 431.5523637512053L1484.867985801503 558.8243794300568ZM1578.3753880979807 561.5133894985975L1578.3753880979807 561.5133894985975Q1566.2631514414225 561.5133894985975 1556.535949802179 555.5741846515596Q1546.8087481629354 549.6583625007695 1541.1267529746274 539.2998280628252Q1535.4447577863193 528.9412936248809 1535.4447577863193 515.6365394596656L1535.4447577863193 515.6365394596656Q1535.4447577863193 502.5188468644359 1541.0566048858827 492.2070778189879Q1546.645069289198 481.89530877353985 1556.3722709284416 475.9093385340054Q1566.099472567685 469.923368294471 1578.3753880979807 469.923368294471L1578.3753880979807 469.923368294471Q1590.0901189183191 469.923368294471 1599.6068762913292 475.3949192165455Q1609.1002509680907 480.8664701386199 1614.0807652689537 490.546906385367L1614.0807652689537 490.546906385367L1614.0807652689537 472.63576105926006L1626.3566807992488 472.63576105926006L1626.3566807992488 558.8243794300568L1614.0807652689537 558.8243794300568L1614.0807652689537 540.6326417489715Q1608.5156835618864 550.4066087807114 1599.1859877588618 555.9716904877786Q1589.832909259589 561.5133894985975 1578.3753880979807 561.5133894985975ZM1581.415138610244 550.8274973131786L1581.415138610244 550.8274973131786Q1591.0955748569913 550.8274973131786 1598.5546549601609 546.3146369372796Q1605.9903523670828 541.8251592576289 1610.2927684767478 533.8750425332471Q1614.5718018901653 525.9015431126172 1614.5718018901653 515.7300702446584L1614.5718018901653 515.7300702446584Q1614.5718018901653 505.4650665917067 1610.3395338692444 497.53833256357325Q1606.0838831520755 489.6349812316879 1598.5780376564094 485.1221208557889Q1591.0955748569913 480.63264317613806 1581.415138610244 480.63264317613806L1581.415138610244 480.63264317613806Q1571.734702363497 480.63264317613806 1564.252239564079 485.1221208557889Q1556.7463940684129 489.6349812316879 1552.4673606549954 497.53833256357325Q1548.16494454533 505.4650665917067 1548.16494454533 515.7300702446584L1548.16494454533 515.7300702446584Q1548.16494454533 525.9015431126172 1552.4673606549954 533.8750425332471Q1556.7463940684129 541.8251592576289 1564.252239564079 546.3146369372796Q1571.734702363497 550.8274973131786 1581.415138610244 550.8274973131786ZM1674.852392817977 558.8243794300568L1662.5530945914334 558.8243794300568L1662.5530945914334 472.63576105926006L1674.852392817977 472.63576105926006L1674.852392817977 485.3325651220226Q1678.9677473576567 477.75657153761176 1685.4915196108996 473.85166126416544Q1692.015291864142 469.923368294471 1700.620124083473 469.923368294471L1700.620124083473 469.923368294471Q1704.4081208756784 469.923368294471 1708.3130311491245 470.76514535940555Q1712.2179414225707 471.6069224243401 1715.094013061097 472.9631188067346L1715.094013061097 472.9631188067346L1710.0433506714899 483.32165324467894Q1707.5180194766863 482.05898764727715 1704.267824698189 481.3808894560799Q1701.04101261594 480.70279126488265 1698.094792888669 480.70279126488265L1698.094792888669 480.70279126488265Q1692.1088226491347 480.70279126488265 1686.8009506007975 483.7425417771462Q1681.4930785524602 486.7589095931616 1678.1727356852184 491.5991277165352Q1674.852392817977 496.4393458399087 1674.852392817977 501.91089676198317L1674.852392817977 501.91089676198317L1674.852392817977 558.8243794300568ZM1777.1283062075222 561.5133894985975L1777.1283062075222 561.5133894985975Q1763.5663423835772 561.5133894985975 1752.9272155906547 555.5508019553113Q1742.2880887977321 549.5648317157768 1736.2085877732052 539.2530626703289Q1730.1524694449258 528.9412936248809 1730.1524694449258 516.057427992133L1730.1524694449258 516.057427992133Q1730.1524694449258 506.3769917453858 1733.659873882153 498.00598648853685Q1737.1438956231323 489.6349812316879 1743.3636928251485 483.32165324467894Q1749.6068727234128 477.00832525767 1757.860964499021 473.47753812419455Q1766.0916735783808 469.923368294471 1775.4447520776534 469.923368294471L1775.4447520776534 469.923368294471Q1788.2350869254083 469.923368294471 1798.2194982233818 475.53521539403454Q1808.1805268251073 481.1236797973499 1814.0495835834008 490.9677949178343Q1819.8952576454462 500.83529273456685 1820.2226153929205 513.6957756710666L1820.2226153929205 513.6957756710666Q1820.2226153929205 514.7246143059865 1820.1758500004244 515.3559471046874Q1820.1524673041763 515.9872799033883 1819.9654057341909 516.8992050570674L1819.9654057341909 516.8992050570674L1742.3582368864768 516.8992050570674Q1742.3582368864768 527.0005298362819 1746.917862654872 534.7402022944298Q1751.454105727019 542.5032574488262 1759.4042224514005 546.9225870397324Q1767.3543391757826 551.3419166306387 1777.6427255249823 551.3419166306387L1777.6427255249823 551.3419166306387Q1787.393309860474 551.3419166306387 1795.1797477111186 547.2499447872069Q1802.9661855617628 543.1579729437751 1808.1805268251073 535.5118312706198L1808.1805268251073 535.5118312706198L1817.2763956656495 540.3988147864898Q1811.1267465523779 550.4066087807114 1800.5811505444485 555.9716904877786Q1790.0121718402702 561.5133894985975 1777.1283062075222 561.5133894985975ZM1743.0363350776738 507.6396573427876L1743.0363350776738 507.6396573427876L1807.9466998626253 507.6396573427876Q1806.847713138961 499.572627137165 1802.2880873705653 493.376212631397Q1797.7518442984183 487.1797981256289 1790.8071835127084 483.6490109921535Q1783.8625227269986 480.1182238586781 1775.6084309513903 480.1182238586781L1775.6084309513903 480.1182238586781Q1767.1205122133006 480.1182238586781 1760.1290860350946 483.6022455996571Q1753.1376598568881 487.1096500368843 1748.6247994809892 493.2826818464042Q1744.1353218013383 499.4790963521723 1743.0363350776738 507.6396573427876ZM1862.311468639647 558.8243794300568L1850.035553109352 558.8243794300568L1850.035553109352 481.89530877353985L1841.3605728012767 481.89530877353985L1841.3605728012767 472.63576105926006L1850.035553109352 472.63576105926006L1850.035553109352 441.7238366191642Q1850.035553109352 432.0434003724171 1852.7947112666375 425.30918385294086Q1855.5772521201707 418.57496733346466 1860.8851241685084 415.0441801999892Q1866.1929962168451 411.51339306651386 1873.9326686749932 411.51339306651386L1873.9326686749932 411.51339306651386Q1878.7261214058703 411.51339306651386 1882.8648586417985 412.822824056412Q1886.9802131814786 414.13225504631015 1890.0901117824865 416.564055456121L1890.0901117824865 416.564055456121L1885.8110783690695 425.30918385294086Q1881.9295507918714 422.29281603692544 1876.0371113373294 422.29281603692544L1876.0371113373294 422.29281603692544Q1871.313806695197 422.29281603692544 1868.2974388791813 424.60770296549543Q1865.257688366918 426.9225898940654 1863.7845785032823 431.20162330748263Q1862.311468639647 435.50403941714796 1862.311468639647 441.3964788716897L1862.311468639647 441.3964788716897L1862.311468639647 472.63576105926006L1884.2912031129376 472.63576105926006L1884.2912031129376 481.89530877353985L1862.311468639647 481.89530877353985L1862.311468639647 558.8243794300568ZM1945.6473980681658 561.5133894985975L1945.6473980681658 561.5133894985975Q1933.535161411608 561.5133894985975 1923.8079597723645 555.5741846515596Q1914.080758133121 549.6583625007695 1908.398762944813 539.2998280628252Q1902.7167677565044 528.9412936248809 1902.7167677565044 515.6365394596656L1902.7167677565044 515.6365394596656Q1902.7167677565044 502.5188468644359 1908.3286148560683 492.2070778189879Q1913.9170792593836 481.89530877353985 1923.6442808986271 475.9093385340054Q1933.3714825378702 469.923368294471 1945.6473980681658 469.923368294471L1945.6473980681658 469.923368294471Q1957.3621288885042 469.923368294471 1966.8555035652662 475.3949192165455Q1976.3722609382762 480.8664701386199 1981.3527752391387 490.546906385367L1981.3527752391387 490.546906385367L1981.3527752391387 472.63576105926006L1993.628690769434 472.63576105926006L1993.628690769434 558.8243794300568L1981.3527752391387 558.8243794300568L1981.3527752391387 540.6326417489715Q1975.7876935320714 550.4066087807114 1966.4346150327988 555.9716904877786Q1957.1049192297746 561.5133894985975 1945.6473980681658 561.5133894985975ZM1948.6871485804295 550.8274973131786L1948.6871485804295 550.8274973131786Q1958.3675848271764 550.8274973131786 1965.8032822340979 546.3146369372796Q1973.2623623372679 541.8251592576289 1977.5647784469334 533.8750425332471Q1981.8438118603503 525.9015431126172 1981.8438118603503 515.7300702446584L1981.8438118603503 515.7300702446584Q1981.8438118603503 505.4650665917067 1977.5881611431819 497.53833256357325Q1973.3558931222606 489.6349812316879 1965.8500476265945 485.1221208557889Q1958.3675848271764 480.63264317613806 1948.6871485804295 480.63264317613806L1948.6871485804295 480.63264317613806Q1939.0067123336821 480.63264317613806 1931.500866838016 485.1221208557889Q1924.018404038598 489.6349812316879 1919.715987928933 497.53833256357325Q1915.4369545155155 505.4650665917067 1915.4369545155155 515.7300702446584L1915.4369545155155 515.7300702446584Q1915.4369545155155 525.9015431126172 1919.715987928933 533.8750425332471Q1924.018404038598 541.8251592576289 1931.500866838016 546.3146369372796Q1939.0067123336821 550.8274973131786 1948.6871485804295 550.8274973131786ZM2051.5476293761794 561.5133894985975L2051.5476293761794 561.5133894985975Q2040.8617371907603 561.5133894985975 2032.7011762001453 556.3458136277495Q2024.5172325132817 551.1548550606533 2019.9809894411342 541.6614803838916L2019.9809894411342 541.6614803838916L2026.5515270868732 534.5765234206926Q2030.5967335378086 542.8306151963006 2037.073740398555 547.4136236609443Q2043.5507472593013 551.9966321255877 2051.4540985911867 551.9966321255877L2051.4540985911867 551.9966321255877Q2056.7619706395235 551.9966321255877 2061.18130023043 549.8220413745069Q2065.6006298213365 547.6240679271777 2068.266257193629 543.5554787799942Q2070.9085018696733 539.4635069365625 2070.9085018696733 533.8282771407507L2070.9085018696733 533.8282771407507Q2070.9085018696733 528.6840839661509 2068.4299360673663 525.7378642388801Q2065.9513702650593 522.7916445116091 2061.18130023043 520.6404364567765Q2056.4346128920492 518.5126110981919 2049.34965592885 515.8002183334029L2049.34965592885 515.8002183334029Q2043.8781050067755 513.6256275823221 2038.7572945284242 510.8430867287885Q2033.6131013538238 508.0605458752549 2030.2927584865824 503.80489515808586Q2026.972415619341 499.572627137165 2026.972415619341 493.00208949142603L2026.972415619341 493.00208949142603Q2026.972415619341 486.33802106069436 2030.503202752816 481.17044518984625Q2034.0339898862912 476.0028693189982 2040.2771697845556 473.00988419923095Q2046.4969669865718 470.0168990794637 2054.4003183184573 470.0168990794637L2054.4003183184573 470.0168990794637Q2061.6489541553938 470.0168990794637 2068.009047534899 473.12679768047184Q2074.3691409144044 476.23669628147996 2079.4198033040116 481.96545686228444L2079.4198033040116 481.96545686228444L2073.761190811952 489.12056191422795Q2066.0215183538035 478.949089046269 2054.4938491034504 478.949089046269L2054.4938491034504 478.949089046269Q2047.4322748364993 478.949089046269 2043.012945245593 482.6435550534817Q2038.5936156546868 486.33802106069436 2038.5936156546868 492.3239913002288L2038.5936156546868 492.3239913002288Q2038.5936156546868 496.62640740989417 2041.3527738119724 499.4790963521723Q2044.1353146655056 502.3317852944504 2048.648175041405 504.3660798680422Q2053.1376527210555 506.3769917453858 2058.375376680648 508.4112863189776L2058.375376680648 508.4112863189776Q2065.9513702650593 511.2639752612557 2071.539834668374 514.1166642035339Q2077.1282990716895 516.9927358420603 2080.261580368946 521.4120654329665Q2083.3714789699543 525.8313950238728 2083.3714789699543 533.4073886082836L2083.3714789699543 533.4073886082836Q2083.3714789699543 542.0823689163587 2079.326272519019 548.3956969033677Q2075.2810660680834 554.7090248903768 2068.0791956236435 558.0995158463631Q2060.9007078754516 561.5133894985975 2051.5476293761794 561.5133894985975Z " fill="#d6586b" transform="matrix(0.41999231791395064,0,0,0.41999231791395064,0,95.66811778396021)"/></g></svg>